<svg xmlns="http://www.w3.org/2000/svg" viewBox="0 0 512 512" width="512" height="512"><g id="flat"><path d="M159.687,310.764q-3.2-1.622-6.336-3.551a55.769,55.769,0,0,0-9.939-4.656,51.5,51.5,0,0,1-18.085-11.548c-9.245-9.04-14.352-20.46-15.048-31.392l-.647-.976c-13.6-6.785-26.145-23.354-32.13-44.725-6.168-22.027-3.735-43.315,4.991-56.07a51.713,51.713,0,0,1-1.542-20.3C82.452,125,88.165,114.2,96.12,106.985c7.495-24.348,20.259-42.782,38.3-47.836S172.95,63.22,192,80.134c10.546,2.035,21.036,8.3,28.835,18.239a51.724,51.724,0,0,1,9.225,18.147c14.081,6.368,27.216,23.3,33.385,45.323,5.985,21.373,3.87,42.049-4.231,54.911l-.046,1.161c5.085,9.7,6.654,22.118,3.447,34.647a50.581,50.581,0,0,1-13.144,23.387,82.322,82.322,0,0,1-16.44,24.754l-6.257,5.171A51.722,51.722,0,0,0,208,345.745h0a63.441,63.441,0,0,0,13.9,39.633L240,408v48l-37.415-42.092a106.172,106.172,0,0,1-26.816-69.923l-.04-6.839A29.7,29.7,0,0,0,159.687,310.764Z" style="fill:#027e2a"></path><path d="M352.383,310.764q3.2-1.622,6.336-3.551a55.769,55.769,0,0,1,9.939-4.656,51.5,51.5,0,0,0,18.085-11.548c9.245-9.04,14.352-20.46,15.047-31.392l.647-.976c13.6-6.785,26.146-23.354,32.13-44.725,6.169-22.027,3.735-43.315-4.99-56.07a51.713,51.713,0,0,0,1.542-20.3c-1.5-12.548-7.214-23.346-15.169-30.562-7.5-24.348-20.259-42.782-38.3-47.836S339.12,63.22,320.069,80.134c-10.546,2.035-21.036,8.3-28.835,18.239a51.724,51.724,0,0,0-9.225,18.147c-14.081,6.368-27.216,23.3-33.385,45.323-5.986,21.373-3.871,42.049,4.231,54.911l.046,1.161c-5.085,9.7-6.654,22.118-3.448,34.647A50.591,50.591,0,0,0,262.6,275.949a82.322,82.322,0,0,0,16.44,24.754l6.257,5.171a51.725,51.725,0,0,1,18.775,39.871h0a63.441,63.441,0,0,1-13.9,39.633L272.07,408v48l37.415-42.092A106.172,106.172,0,0,0,336.3,343.985l.04-6.839A29.693,29.693,0,0,1,352.383,310.764Z" style="fill:#027e2a"></path><path d="M296.56,290.76a8,8,0,0,0,7.51,5.24,8.078,8.078,0,0,0,2.76-.49l40.18-14.76L366,285.84a8,8,0,1,0,4.14-15.45l-9.41-2.53,5.59-6.77a7.995,7.995,0,1,0-12.33-10.18L341.85,265.6l-25.68,9.43,9.45-32.49a8.152,8.152,0,0,0,2.66-.61l34.31-14.58,19.47,5.07a8,8,0,0,0,4.02-15.49l-10.84-2.82,6.75-9.46a8,8,0,1,0-13.02-9.3l-12.2,17.09L331.22,223.3l12.68-43.64,33.53-14.23,11.73,4.56a8,8,0,1,0,5.81-14.91l-3-1.16,4.34-4.11a8,8,0,0,0-11-11.62l-12.47,11.8-23.17,9.84L378.84,59.51c-.39-.13-.79-.25-1.19-.36a39.394,39.394,0,0,0-15.09-1.11L296.39,285.77a4.315,4.315,0,0,0-.2.88A7.961,7.961,0,0,0,296.56,290.76Z" style="fill:#026a23"></path><path d="M215.51,290.76A8,8,0,0,1,208,296a8.078,8.078,0,0,1-2.76-.49l-40.18-14.76-18.99,5.09a8,8,0,1,1-4.14-15.45l9.41-2.53-5.59-6.77a7.995,7.995,0,1,1,12.33-10.18l12.14,14.69,25.68,9.43-9.45-32.49a8.152,8.152,0,0,1-2.66-.61l-34.31-14.58-19.47,5.07a8,8,0,0,1-4.02-15.49l10.84-2.82-6.75-9.46a8,8,0,1,1,13.02-9.3l12.2,17.09,25.55,10.86-12.68-43.64-33.53-14.23-11.73,4.56a8,8,0,1,1-5.81-14.91l3-1.16-4.34-4.11a8,8,0,0,1,11-11.62l12.47,11.8,23.17,9.84L133.23,59.51c.39-.13.79-.25,1.19-.36a39.394,39.394,0,0,1,15.09-1.11l66.17,227.73a4.315,4.315,0,0,1,.2.88A7.961,7.961,0,0,1,215.51,290.76Z" style="fill:#026a23"></path><path d="M215.51,290.76A8,8,0,0,1,208,296a8.078,8.078,0,0,1-2.76-.49l-40.18-14.76-18.99,5.09a8,8,0,1,1-4.14-15.45l9.41-2.53-5.59-6.77a7.995,7.995,0,1,1,12.33-10.18l12.14,14.69,25.68,9.43-9.45-32.49a8.152,8.152,0,0,1-2.66-.61l-34.31-14.58-19.47,5.07a8,8,0,0,1-4.02-15.49l10.84-2.82-6.75-9.46a8,8,0,1,1,13.02-9.3l12.2,17.09,25.55,10.86-12.68-43.64-33.53-14.23-11.73,4.56a8,8,0,1,1-5.81-14.91l3-1.16-4.34-4.11a8,8,0,0,1,11-11.62l12.47,11.8,23.17,9.84L133.23,59.51c.39-.13.79-.25,1.19-.36a39.394,39.394,0,0,1,15.09-1.11l66.17,227.73a4.315,4.315,0,0,1,.2.88A7.961,7.961,0,0,1,215.51,290.76Z" style="fill:#029532"></path><path d="M215.51,290.76A8,8,0,0,1,208,296a8.078,8.078,0,0,1-2.76-.49l-40.18-14.76-18.99,5.09a8,8,0,1,1-4.14-15.45l9.41-2.53-5.59-6.77a7.995,7.995,0,1,1,12.33-10.18l12.14,14.69,25.68,9.43-9.45-32.49a8.152,8.152,0,0,1-2.66-.61l-34.31-14.58-19.47,5.07a8,8,0,0,1-4.02-15.49l10.84-2.82-6.75-9.46a8,8,0,1,1,13.02-9.3l12.2,17.09,25.55,10.86-12.68-43.64-33.53-14.23-11.73,4.56a8,8,0,1,1-5.81-14.91l3-1.16-4.34-4.11a8,8,0,0,1,11-11.62l12.47,11.8,23.17,9.84L133.23,59.51c.39-.13.79-.25,1.19-.36a39.394,39.394,0,0,1,15.09-1.11l66.17,227.73a4.315,4.315,0,0,1,.2.88A7.961,7.961,0,0,1,215.51,290.76Z" style="fill:#026a23"></path><path d="M360,168c0-24.64-8.708-46.014-21.464-56.71a55.714,55.714,0,0,0-4.3-21.5c-5.2-12.579-14.264-22.12-24.612-27.294C294.78,39.413,276.185,24,256,24s-38.78,15.413-53.627,38.492c-10.348,5.174-19.411,14.715-24.612,27.294a55.714,55.714,0,0,0-4.3,21.5C160.708,121.986,152,143.36,152,168c0,23.9,8.195,44.729,20.329,55.72l.393,1.213c-2.452,11.54-.472,24.867,6.491,36.926A54.487,54.487,0,0,0,199.641,282.3a88.69,88.69,0,0,0,24.243,20.9A31.671,31.671,0,0,1,240,330.669V472a16,16,0,0,0,16,16h0a16,16,0,0,0,16-16V330.669A31.671,31.671,0,0,1,288.116,303.2a88.69,88.69,0,0,0,24.243-20.9,54.487,54.487,0,0,0,20.428-20.441c6.963-12.059,8.943-25.386,6.491-36.926l.393-1.213C351.805,212.729,360,191.9,360,168Z" style="fill:#02a437"></path><path d="M264,212v44l17.2-12.9,7.21-21.63a8,8,0,0,1,15.18,5.06L299.1,240H312a8,8,0,0,1,0,16H290.67L264,276v20a8,8,0,0,1-16,0V276l-26.67-20H200a8,8,0,0,1,0-16h12.9l-4.49-13.47a8,8,0,0,1,15.18-5.06l7.21,21.63L248,256V212l-26.67-20H200a8,8,0,0,1,0-16h12.9l-4.49-13.47a8,8,0,0,1,15.18-5.06l7.21,21.63L248,192V148l-26.67-20H200a8,8,0,0,1,0-16h12.9l-4.49-13.47a8,8,0,0,1,15.18-5.06l7.21,21.63L248,128V24.81a39.911,39.911,0,0,1,16,0V128l17.2-12.9,7.21-21.63a8,8,0,0,1,15.18,5.06L299.1,112H312a8,8,0,0,1,0,16H290.67L264,148v44l17.2-12.9,7.21-21.63a8,8,0,0,1,15.18,5.06L299.1,176H312a8,8,0,0,1,0,16H290.67Z" style="fill:#02a437"></path><path d="M264,212v44l17.2-12.9,7.21-21.63a8,8,0,0,1,15.18,5.06L299.1,240H312a8,8,0,0,1,0,16H290.67L264,276v20a8,8,0,0,1-16,0V276l-26.67-20H200a8,8,0,0,1,0-16h12.9l-4.49-13.47a8,8,0,0,1,15.18-5.06l7.21,21.63L248,256V212l-26.67-20H200a8,8,0,0,1,0-16h12.9l-4.49-13.47a8,8,0,0,1,15.18-5.06l7.21,21.63L248,192V148l-26.67-20H200a8,8,0,0,1,0-16h12.9l-4.49-13.47a8,8,0,0,1,15.18-5.06l7.21,21.63L248,128V24.81a39.911,39.911,0,0,1,16,0V128l17.2-12.9,7.21-21.63a8,8,0,0,1,15.18,5.06L299.1,112H312a8,8,0,0,1,0,16H290.67L264,148v44l17.2-12.9,7.21-21.63a8,8,0,0,1,15.18,5.06L299.1,176H312a8,8,0,0,1,0,16H290.67Z" style="fill:#027e2a"></path></g></svg>
         