<svg xmlns="http://www.w3.org/2000/svg" height="512" viewBox="0 0 512 512" width="512"><g id="flat"><path d="m248.94 83-16.85 1.87-28.05 3.11a67.587 67.587 0 0 1 -58.79-23.19l-19.13-22.31-11.23-13.1 17.24-1.72 33.15-3.32a67.632 67.632 0 0 1 61.75 27.97l13.3 18.63z" fill="#029532"></path><path d="m256.37 85.97a7.978 7.978 0 0 1 -10.4 4.45l-13.88-5.55-105.97-42.39-11.23-13.1 17.24-1.72 108.2 43.28 11.58 4.63a8 8 0 0 1 4.46 10.4z" fill="#02a437"></path><path d="m268.489 130.148.835-5.011a122.049 122.049 0 0 1 34.086-66.237l17.028-17.027h-44.684a122.043 122.043 0 0 0 -35.747 86.3 12 12 0 0 0 12 12h4.639a12 12 0 0 0 11.843-10.025z" fill="#02a437"></path><path d="m336.177 122.649a69.071 69.071 0 0 0 -27.11 2.722 173.168 173.168 0 0 1 -99.806 0 69.073 69.073 0 0 0 -27.11-2.722c-63.833 6.501-120.689 60.151-103.006 172.288 17.874 113.344 80.824 199.218 144.655 192.717q2.385-.243 4.731-.653a178.142 178.142 0 0 1 61.261 0q2.346.411 4.732.654c63.833 6.5 124.216-79.373 142.09-192.717 17.686-112.138-36.604-165.788-100.437-172.289z" fill="#e82f3e"></path><path d="m436.62 294.94c-17.09 108.33-73.01 191.57-133.65 193.03l-11.73-3.24a48.34 48.34 0 0 1 -34.73-46.41v-227.46a84.333 84.333 0 0 1 24.7-59.64 119.745 119.745 0 0 1 46.71-28.89 65.334 65.334 0 0 1 8.26.32c63.83 6.5 118.12 60.15 100.44 172.29z" fill="#ffc864"></path><path d="m123.829 219.672a8 8 0 0 1 -8-8 58.441 58.441 0 0 1 17.395-41.456 8 8 0 0 1 11.209 11.418 42.343 42.343 0 0 0 -12.6 30.038 8 8 0 0 1 -8.004 8z" fill="#ff3444"></path><path d="m123.829 255.419a8 8 0 0 1 -8-8v-8.937a8 8 0 0 1 16 0v8.937a8 8 0 0 1 -8 8z" fill="#ff3444"></path><g fill="#ea9d2d"><path d="m312 304 23.523-11.761a13.149 13.149 0 0 1 15.177 2.461 13.15 13.15 0 0 1 0 18.6 13.149 13.149 0 0 1 -15.179 2.463z"></path><path d="m288 262.431 1.576-26.252a13.149 13.149 0 0 1 9.722-11.914 13.149 13.149 0 0 1 16.105 9.3 13.15 13.15 0 0 1 -5.456 14.377z"></path><path d="m288 345.569 21.947 14.491a13.15 13.15 0 0 1 5.456 14.377 13.149 13.149 0 0 1 -16.105 9.3 13.149 13.149 0 0 1 -9.722-11.914z"></path></g></g></svg>