<svg xmlns="http://www.w3.org/2000/svg" height="512" viewBox="0 0 512 512" width="512"><g id="flat"><path d="m446.84 194.8a191.847 191.847 0 0 0 -190.84-170.8 195.392 195.392 0 0 0 -22.56 1.31 192.048 192.048 0 0 0 -168.26 169.29 194 194 0 0 0 -1.18 21.4c0 106.04 85.96 192 192 192s192-85.96 192-192a192.839 192.839 0 0 0 -1.16-21.2zm-190.84 77.2a56 56 0 1 1 56-56 56 56 0 0 1 -56 56z" fill="#cd9c7a"></path><path d="m256 24c-98.81 0-180.18 74.63-190.82 170.6 3.7 10.74 8.6 21.15 11.97 31.51 6.29 19.37 8.54 40.98 20.27 57.1 11.85 16.29 31.79 25.05 48.07 36.9 16.13 11.73 30.56 28.06 49.93 34.35 18.69 6.06 39.87 1.54 60.58 1.54s41.89 4.52 60.58-1.54c19.37-6.29 33.8-22.62 49.93-34.35 16.28-11.85 36.22-20.61 48.07-36.9 11.73-16.12 13.98-37.73 20.27-57.1 3.37-10.38 8.29-20.67 11.99-31.31-10.55-96.06-91.96-170.8-190.84-170.8zm0 248a56 56 0 1 1 56-56 56 56 0 0 1 -56 56z" fill="#ffb1b5"></path><path d="m338.765 189.107c-2.981-9.18-.343-21.31-5.9-28.951-5.617-7.718-18.006-8.931-25.723-14.548-7.642-5.562-12.593-17-21.774-19.982-8.862-2.876-19.551 3.374-29.368 3.374s-20.506-6.25-29.364-3.374c-9.18 2.981-14.132 14.42-21.773 19.981-7.718 5.617-20.107 6.83-25.724 14.548-5.561 7.641-2.923 19.771-5.9 28.951-2.88 8.859-12.239 17.077-12.239 26.894s9.359 18.035 12.235 26.893c2.981 9.18.343 21.31 5.9 28.951 5.617 7.718 18.006 8.931 25.723 14.548 7.642 5.561 12.593 17 21.774 19.982 8.862 2.876 19.551-3.374 29.368-3.374s20.506 6.25 29.364 3.374c9.18-2.981 14.132-14.42 21.773-19.981 7.718-5.617 20.107-6.83 25.723-14.548 5.562-7.641 2.924-19.771 5.9-28.951 2.881-8.859 12.24-17.077 12.24-26.894s-9.359-18.035-12.235-26.893zm-82.765 82.893a56 56 0 1 1 56-56 56 56 0 0 1 -56 56z" fill="#cd9c7a"></path><path d="m344 272v48h-80v80c0 13.455 11.011 24.791 24.464 24.536a24 24 0 0 0 23.536-24v-32.536a16 16 0 0 1 32 0v87.46c0 13.455 11.011 24.791 24.464 24.536a24 24 0 0 0 23.536-23.996v-184z" fill="#ffb1b5"></path><path d="m119.994 200a7.973 7.973 0 0 1 -3.572-.847l-16-8a8 8 0 0 1 7.156-14.31l16 8a8 8 0 0 1 -3.584 15.157z" fill="#ebebeb"></path><path d="m144 144a8 8 0 0 1 -5.657-13.657l16-16a8 8 0 0 1 11.314 11.314l-16 16a7.974 7.974 0 0 1 -5.657 2.343z" fill="#f388a2"></path><path d="m223.994 104a7.973 7.973 0 0 1 -3.572-.847l-16-8a8 8 0 0 1 7.156-14.31l16 8a8 8 0 0 1 -3.584 15.157z" fill="#fbd699"></path><path d="m288 96a8 8 0 0 1 -2.529-15.591l24-8a8 8 0 1 1 5.06 15.178l-24 8a7.992 7.992 0 0 1 -2.531.413z" fill="#ebebeb"></path><path d="m375.994 160a7.973 7.973 0 0 1 -3.572-.847l-16-8a8 8 0 0 1 7.156-14.31l16 8a8 8 0 0 1 -3.584 15.157z" fill="#b3e4e8"></path><path d="m384.006 216a8 8 0 0 1 -3.584-15.157l16-8a8 8 0 1 1 7.156 14.31l-16 8a7.973 7.973 0 0 1 -3.572.847z" fill="#f388a2"></path><path d="m144 272h-16a8 8 0 0 1 0-16h16a8 8 0 0 1 0 16z" fill="#fbd699"></path><path d="m200 336a7.974 7.974 0 0 1 -5.657-2.343l-16-16a8 8 0 0 1 11.314-11.314l16 16a8 8 0 0 1 -5.657 13.657z" fill="#b3e4e8"></path></g></svg>