<svg xmlns="http://www.w3.org/2000/svg" height="512" viewBox="0 0 512 512" width="512"><g id="flat"><path d="m256 88.962a8 8 0 0 1 -8-8v-56.962a8 8 0 0 1 16 0v56.962a8 8 0 0 1 -8 8z" fill="#3f7949"></path><path d="m331.505 156.618-9.581-30.342a69.133 69.133 0 0 0 -65.924-48.314 69.133 69.133 0 0 0 -65.924 48.314l-9.576 30.342a434.741 434.741 0 0 1 -52.839 110.232 140.89 140.89 0 0 0 -23.661 78.15 140.882 140.882 0 0 0 114.523 138.394 200.274 200.274 0 0 0 74.954 0 140.882 140.882 0 0 0 114.523-138.394 140.89 140.89 0 0 0 -23.661-78.149 434.741 434.741 0 0 1 -52.834-110.233z" fill="#9cb26d"></path><path d="m322.629 174.41-8.455-26.775a61.006 61.006 0 0 0 -58.174-42.635 61.006 61.006 0 0 0 -58.174 42.635l-8.455 26.775a383.632 383.632 0 0 1 -46.623 97.274 124.326 124.326 0 0 0 -20.879 68.961 124.322 124.322 0 0 0 101.059 122.127 176.748 176.748 0 0 0 66.142 0 124.322 124.322 0 0 0 101.061-122.127 124.326 124.326 0 0 0 -20.879-68.961 383.632 383.632 0 0 1 -46.623-97.274z" fill="#b5cf7f"></path><circle cx="256" cy="349.581" fill="#7a4922" r="80"></circle><path d="m217.292 385.979a7.989 7.989 0 0 1 -6.456-3.267 56 56 0 0 1 -7.8-51.364 8 8 0 1 1 15.128 5.211 39.992 39.992 0 0 0 5.568 36.684 8 8 0 0 1 -6.442 12.736z" fill="#5b3719"></path><path d="m243.781 404.013a7.993 7.993 0 0 1 -2.036-.264c-1.485-.39-2.97-.847-4.414-1.357a8 8 0 0 1 5.338-15.084c1.026.363 2.082.688 3.137.964a8 8 0 0 1 -2.025 15.741z" fill="#5b3719"></path><g fill="#4e965a"><path d="m290.764 58.11 19.281 34.921a56.692 56.692 0 0 0 58.955 28.518l45.791-7.634-24.662-39.333a56.694 56.694 0 0 0 -60.443-25.2z"></path><path d="m414.79 113.91-13.98 2.33-104.82-48.65-5.23-9.48 15.39-3.45 100.84 46.82z"></path><path d="m359.96 122.32a56.707 56.707 0 0 1 -49.92-29.29l-16.29-29.5-2.99-5.42 4.52-1.01 8.32-1.87 27.73 15.77a56.647 56.647 0 0 1 28.63 51.32z"></path></g><path d="m414.79 113.91-13.98 2.33-104.82-48.65-37.84-17.57a8 8 0 1 1 6.74-14.52l41.26 19.16 100.84 46.82z" fill="#3f7949"></path><path d="m359.96 122.32a56.707 56.707 0 0 1 -49.92-29.29l-16.29-29.5 1.53-6.43 1.38-5.82 6.94 3.95 27.73 15.77a56.647 56.647 0 0 1 28.63 51.32z" fill="#3f7949"></path><path d="m300.385 68.025-11.13-3.566-7.715 32.46a56.692 56.692 0 0 0 24.437 60.757l39.023 25.154 8.212-45.691a56.691 56.691 0 0 0 -27.769-59.307l-23.093-13.132z" fill="#4e965a"></path><path d="m347.54 168.63-2.55 14.2-12.11-7.81-45.2-103.94 3.08-12.97 11.59 6.59z" fill="#3f7949"></path></g></svg>
         